<svg xmlns="http://www.w3.org/2000/svg" xmlns:xlink="http://www.w3.org/1999/xlink" width="131.07" height="131.07" viewBox="0 0 131.07 131.07">
  <defs>
    <clipPath id="clip-path">
      <rect id="Rectángulo_179" data-name="Rectángulo 179" width="76" height="77" rx="3" transform="translate(0.291 0.362)" fill="#686de0"/>
    </clipPath>
  </defs>
  <g id="Logo_Negativo" data-name="Logo Negativo" transform="translate(-214.667 -71.167)">
    <g id="Trazado_1417" data-name="Trazado 1417" transform="translate(214.667 71.167)" fill="none" opacity="0.5">
      <path d="M65.535,0A65.535,65.535,0,1,1,0,65.535,65.535,65.535,0,0,1,65.535,0Z" stroke="none"/>
      <path d="M 65.53506469726563 0.9999847412109375 C 56.82244873046875 0.9999847412109375 48.3709716796875 2.706161499023438 40.41541290283203 6.071067810058594 C 36.59166717529297 7.688377380371094 32.90357208251953 9.690208435058594 29.45359039306641 12.02097320556641 C 26.03614044189453 14.32977294921875 22.82246398925781 16.98128509521484 19.90188598632813 19.90188598632813 C 16.98128509521484 22.82246398925781 14.32977294921875 26.03614044189453 12.02097320556641 29.45359039306641 C 9.690208435058594 32.90357208251953 7.688377380371094 36.59166717529297 6.071067810058594 40.41541290283203 C 2.706161499023438 48.3709716796875 0.9999847412109375 56.82244873046875 0.9999847412109375 65.53506469726563 C 0.9999847412109375 74.2476806640625 2.706161499023438 82.69915771484375 6.071067810058594 90.65472412109375 C 7.688377380371094 94.47846984863281 9.690208435058594 98.16655731201172 12.02097320556641 101.6165390014648 C 14.32977294921875 105.0339965820313 16.98128509521484 108.2476501464844 19.90188598632813 111.1682434082031 C 22.82246398925781 114.0888290405273 26.03614044189453 116.7403564453125 29.45359039306641 119.0491333007813 C 32.90357208251953 121.3798980712891 36.59166717529297 123.3817367553711 40.41541290283203 124.9990463256836 C 48.3709716796875 128.3639526367188 56.82244873046875 130.0701141357422 65.53506469726563 130.0701141357422 C 74.2476806640625 130.0701141357422 82.69915771484375 128.3639526367188 90.65472412109375 124.9990463256836 C 94.47846984863281 123.3817367553711 98.16655731201172 121.3798980712891 101.6165390014648 119.0491333007813 C 105.0339965820313 116.7403564453125 108.2476501464844 114.0888290405273 111.1682434082031 111.1682434082031 C 114.0888290405273 108.2476501464844 116.7403564453125 105.0339965820313 119.0491333007813 101.6165390014648 C 121.3798980712891 98.16655731201172 123.3817367553711 94.47846984863281 124.9990463256836 90.65472412109375 C 128.3639526367188 82.69915771484375 130.0701141357422 74.2476806640625 130.0701141357422 65.53506469726563 C 130.0701141357422 56.82244873046875 128.3639526367188 48.3709716796875 124.9990463256836 40.41541290283203 C 123.3817367553711 36.59166717529297 121.3798980712891 32.90357208251953 119.0491333007813 29.45359039306641 C 116.7403564453125 26.03614044189453 114.0888290405273 22.82246398925781 111.1682434082031 19.90188598632813 C 108.2476501464844 16.98128509521484 105.0339965820313 14.32977294921875 101.6165390014648 12.02097320556641 C 98.16655731201172 9.690208435058594 94.47846984863281 7.688377380371094 90.65472412109375 6.071067810058594 C 82.69915771484375 2.706161499023438 74.2476806640625 0.9999847412109375 65.53506469726563 0.9999847412109375 M 65.53506469726563 -1.52587890625e-05 C 101.7290802001953 -1.52587890625e-05 131.0701141357422 29.34104919433594 131.0701141357422 65.53506469726563 C 131.0701141357422 101.7290802001953 101.7290802001953 131.0701141357422 65.53506469726563 131.0701141357422 C 29.34104919433594 131.0701141357422 -1.52587890625e-05 101.7290802001953 -1.52587890625e-05 65.53506469726563 C -1.52587890625e-05 29.34104919433594 29.34104919433594 -1.52587890625e-05 65.53506469726563 -1.52587890625e-05 Z" stroke="none" fill="#686de0"/>
    </g>
    <g id="Enmascarar_grupo_8" data-name="Enmascarar grupo 8" transform="translate(240.709 97.638)" clip-path="url(#clip-path)">
      <g id="Grupo_1175" data-name="Grupo 1175" transform="translate(1.44 1.011)">
        <path id="Trazado_1418" data-name="Trazado 1418" d="M1710.188,163.9V87.419h17.079V163.9h-17.079" transform="translate(-1710.188 -87.419)" fill="#686de0"/>
        <path id="Trazado_1419" data-name="Trazado 1419" d="M1783.668,88.312v76.825h-16.876l.826-76.825Z" transform="translate(-1707.348 -88.312)" fill="#686de0"/>
        <path id="Trazado_1420" data-name="Trazado 1420" d="M1710.018,87.312h16.959l28.876,39.513-11.388,14.291Z" transform="translate(-1709.528 -87.312)" fill="#686de0"/>
        <path id="Trazado_1421" data-name="Trazado 1421" d="M1710.757,165l57.579-76.692h18.527L1729.179,165h-18.422" transform="translate(-1710.542 -88.312)" fill="#686de0"/>
      </g>
    </g>
  </g>
</svg>
